# xmcd CD database file
#
# Track frame offsets:
#	150
#	18403
#	45849
#	67088
#	82964
#	101978
#	125221
#
# Disc length: 1879 seconds
#
# Revision: 0
# Processed by: cddbd v1.5.2PL0 Copyright (c) Steve Scherf et al.
# Submitted via: CDex 1.51
#
DISCID=5a075507
DTITLE=Nils Berg cinematoscope presents - Vocals
DYEAR=2013
DGENRE=Jazz
TTITLE0=Pastho love
TTITLE1=Tensta - Malmö
TTITLE2=Jab jab bahaar aayee
TTITLE3=Oodhini
TTITLE4=Mitshe dina
TTITLE5=Another side of Irish music
TTITLE6=Furusato
EXTD=YEAR: 2013
EXTT0=
EXTT1=
EXTT2=
EXTT3=
EXTT4=
EXTT5=
EXTT6=
PLAYORDER=
